<svg xmlns="http://www.w3.org/2000/svg" viewBox="0 0 1280 813" role="img" aria-labelledby="title desc">
  <title id="title">Qatar coverage map</title>
  <desc id="desc">A minimal honeycomb-pattern silhouette representing Qatar.</desc>
  <rect width="1280" height="813" fill="#fff"/>
  <defs>
    <pattern id="honeycomb" width="13" height="11.26" patternUnits="userSpaceOnUse">
      <circle cx="3.25" cy="2.8" r="3.1" fill="#a8a8b0" stroke="#fff" stroke-width="1"/>
      <circle cx="9.75" cy="2.8" r="3.1" fill="#a8a8b0" stroke="#fff" stroke-width="1"/>
      <circle cx="0" cy="8.43" r="3.1" fill="#a8a8b0" stroke="#fff" stroke-width="1"/>
      <circle cx="6.5" cy="8.43" r="3.1" fill="#a8a8b0" stroke="#fff" stroke-width="1"/>
      <circle cx="13" cy="8.43" r="3.1" fill="#a8a8b0" stroke="#fff" stroke-width="1"/>
    </pattern>
    <clipPath id="qatar-shape">
      <path d="M647 37c-22 8-39 24-49 47-9 20-12 42-28 57-14 13-29 21-34 42-5 19 4 35-5 53-8 16-28 23-35 42-8 21 3 39-4 58-7 18-24 26-29 46-5 20 7 36-2 54-8 17-24 28-24 48-1 17 13 31 12 47-1 20-17 30-16 50 1 16 16 27 20 42 5 18-5 34 3 51 8 18 27 25 29 44 2 18-13 32-10 49 3 18 21 24 32 38 12 14 17 31 12 50-5 19-1 33 12 48 13 15 30 19 39 37 10 20 4 38 17 54 13 17 37 23 49 42 12 19 6 43 19 58 13 16 36 23 50 37 16 15 20 38 37 47 18 10 37 1 55 12 17 10 21 30 36 39 16 10 34 5 51 13 15 7 25 24 43 27 17 3 31-8 44-19 17-14 28-32 34-53 7-24 4-49 17-69 13-19 35-29 43-51 8-22-1-46 7-68 8-21 28-37 32-60 5-22-5-43 1-64 6-22 25-39 27-62 3-24-9-43-11-64-3-22 8-46 1-66-7-22-30-31-37-51-8-21-1-44-10-64-9-20-30-28-43-43-15-18-14-42-30-57-16-15-37-13-55-22-18-9-29-28-47-37-18-9-39-2-57-8-20-7-33-26-52-31-20-5-39 4-58-1-18-5-31-21-49-25-19-4-38 5-54 14Z"/>
    </clipPath>
  </defs>
  <g clip-path="url(#qatar-shape)">
    <rect x="420" y="20" width="440" height="770" fill="url(#honeycomb)"/>
  </g>
</svg>
